<svg xmlns="http://www.w3.org/2000/svg" viewBox="0 0 947.84 792.99"><defs><style>.cls-1{fill:#f2b888}.cls-2{fill:#f4a971}.cls-4{fill:#ccc;opacity:.21}.cls-7{fill:#fff}.cls-8{fill:#110903}</style></defs><g id="Layer_2" data-name="Layer 2"><g id="face"><g id="hair"><path class="cls-1" d="M564.21 441.54C561.84 445 562.84 525 594.84 548s-79.41 133.45-90.21 141.72-88.9 48.79-113.34 25.53-39.12-84.76-39.12-84.76-25-89-4.16-131.75 216.2-57.2 216.2-57.2z"/><path class="cls-2" d="M436.8 574.31c73.47-9.45 127.11-68.25 127.11-68.25l18.89 58.37-82.29 120.18s-107 5.12-137.34-35.75 22.18-80.16 22.18-80.16 33.41 7.93 51.45 5.61z"/><path d="M624.46 291.24c0-1.66 11.65-19.14 18.31-13.31s2.5 28.29 2.5 28.29-3.33 26.63-11.65 36.62-2.33 27.56-2.33 27.56 6.49 25.69-16.81 28.19-.84-68.59 0-71.74 9.98-35.61 9.98-35.61z" fill="#f7c18f"/><path class="cls-2" d="M638.61 288.75s4.87-1.49 3.68 8.41a149.33 149.33 0 01-3.68 19l-3.33-3.33s5.83-19.09 3.33-24.08z"/><path class="cls-1" d="M307.5 185.78c-1.81 7.74-5.71 15.13-7.49 23a114.41 114.41 0 00-1.46 40.79c1.81 13.57-.67 26.53-6.19 39-5.05 11.4-10.19 20.43-13.61 32.71-4.58 16.47-6.22 33.93-7.39 50.93-1.23 17.81-.44 41 4.11 58.32 7.87 30 17.34 58.33 36.4 83.17a143.86 143.86 0 0064.72 47.18c53.54 19.45 114.07.05 158.69-32 14.53-10.43 28.18-22.78 38.37-37.58 34.5-50.1 50.11-107.6 50.93-177.43a1174.11 1174.11 0 019-129.79S581 112.67 581 111.85 513.69 79 513.69 79h-99.56c-5.59 0-69.66 5.75-69.66 5.75L319 136.49z"/><path class="cls-2" d="M368.5 93.09s74.89-11.47 109 12.66 54.74 0 54.74 0 23.37 46.51 52.55 53.63c-9.88 18.4-26.57 38.74-11.6 64.54-9.15 20-50.76 19.13-50.76 19.13s114.84 248.73-77.39 295.79c-71.56 7.95-130.64-32-130.64-32s8.17 24.76 46.52 42.75 79.44 22.66 135.45-3.39c0 0 125.09-39.36 130.08-240.74 4.89-197.28-6.65-205.54-11.65-208.87s-27.94-22.47-45.59-29.13S491.65 55 491.65 55h-59.08c-9.98 0-52.42 11.29-64.07 38.09z"/><path d="M947.84 793H0c20.49-12.79 49.64-34.14 59.79-57.22 16.27-37 143.33-155 217.3-155 32.79-28.25 62.75-21.78 62.75-21.78s-6.56 77.9 54.09 104.53S555.3 533.57 570.34 501.87c24.17-8.66 34.13 12.79 34.13 12.79s208.3 77.61 240.85 85 82.84 87.29 85.79 150.9A288.72 288.72 0 01947.84 793zM447.21 258.79c.84-1.66 13.32-20 30.79-15-2.49-5-20-2.5-20-2.5s19.66-7.9 39.79-.62c-2.18-5.41-17.57-6.69-17.57-6.69s27.71-6.83 40.19 3.15c.84-3.33-5.34-7-5.34-7s12.83-1.29 21.15 6.2c-2.49-6.66-4.72-6.28-4.72-6.28s36.24 4.62 51.27 28.75c-19.86 14.15-24.08 7.49-24.08 7.49s13.32.83 14.15-5a71.25 71.25 0 00-27.46 2.49s5-9.15 15-7.49c-13.32-4.16-25.8 5.83-25.8 5.83s5-8.32 13.31-7.49c-19.13 1.66-51.59-.83-63.24 10s-37.44-5.84-37.44-5.84zM292.44 228c0-.83 8.32-20.8 28.29-19.14-8.32 2.5-5.83 5.83-5.83 5.83s17.44-9.16 29.94-3.33c-10.78 0-11.63 3.33-11.63 3.33s26.63-4.17 35.79 8.31c-10.82-4.16-19.14-.84-19.14-.84s25 1.67 29.13 15.82c-2.5-11.65-5-12.49-5-12.49s13.31 9.16 10.81 18.31c5.83-14.15-2-17.52-2-17.52s13.65 12.53 9.49 19.18c5-10.81.79-12.6.79-12.6s12.42 15 1.66 29.18c-24-11.51-48.22-20.74-52.38-28.23S311.57 223 311.57 223s7.58 8.23 16.28 7c-9.25 2.59-22.93-4.53-22.93-4.53s-.83 6.66 7.49 7.49c-7.49 4.19-19.97-4.96-19.97-4.96z"/><path class="cls-4" d="M281.38 245.68s-19.14 23.3-7.49 51.59 48.26 30.79 49.1 31.62 31.62 6.66 49.92-11.65 23.3-43.27 13.32-52.42-59.92-39.95-104.85-19.14z"/><path d="M631.12 270.44a206.48 206.48 0 01-42.44 12.48s-97.36-35-157.28-19.14c-29.95-.78-33.28-5.78-33.28-5.78s-70.73-40-135.64-24.18l-4.16 23.31s5.82 3.32 10 32.45 26.63 39.11 57.42 43.27 59.08-8.32 74.89-44.1c17.48-16.65 25.8 2.49 25.8 2.49s5.35 63.2 59.92 69.9c47.43 5.83 59.08 5.83 71.56-15s16.64-35.78 26.63-37.44 37.46-7.47 37.46-7.47 10.78-22.47 9.12-30.79zm-258 46.6c-18.3 18.31-49.09 12.48-49.93 11.65s-37.44-3.33-49.09-31.62 7.49-51.6 7.49-51.6c44.93-20.8 94.86 10 104.85 19.14s5.02 34.12-13.29 52.39zm173.09 34.12c-10 11.65-39.11 9.15-39.11 9.15s-31.62-2.49-55.75-22.47-11.65-57.41-11.65-57.41c21.63-20.81 62.41-13.32 90.7-5.83s31.62 21.64 33.29 31.62-7.46 33.29-17.45 44.94z"/><path class="cls-4" d="M440 280.14s-12.49 37.45 11.65 57.42 55.75 23.3 55.75 23.3 29.13 1.66 39.11-10 19.14-34.95 17.48-44.93-5-24.13-33.29-31.62-69.04-14.97-90.7 5.83z"/><path d="M307.59 262.71s18.87-24.07 62.61 5.56c-14.06-13.14-47.45-27.44-62.61-5.56z"/><path d="M305.33 271.54s35.37 29.69 68.66 7.22c-15-18.31-48.29-21.1-68.66-7.22" fill="#e6e6e6"/><path d="M473.78 294.83c-.82.49 49.58 32.93 78.49 5.1-21.22-9.93-49.42-22.31-78.49-5.1z" fill="#ccc"/><path d="M498.45 288.53s-4.63 11.6 6.18 17.14 24.55-4.33 21.43-15.2c-16.23-3.47-9.67-4.64-27.61-1.94z"/><path class="cls-7" d="M508.79 292.91c0 2.3-.19 5.82-2.49 5.82s-5.83-2.69-5.83-5a4.16 4.16 0 014.16-4.16c2.3.01 4.16 1.04 4.16 3.34z"/><path class="cls-7" d="M508.79 292.91c0 2.3-.19 5.82-2.49 5.82s-5.83-2.69-5.83-5a4.16 4.16 0 014.16-4.16c2.3.01 4.16 1.04 4.16 3.34zM511.29 299.58c0 .65-.06 1.65-.73 1.65s-1.7-.76-1.7-1.42a1.2 1.2 0 011.22-1.17c.67 0 1.21.29 1.21.94z"/><path d="M473 295.4s33.29-19.14 79.89 5c-10.81-8.32-52.42-25.8-79.89-5zM304.09 272.1c-.65.53 39.94-21.63 69.9 6.66-9.16-14.15-44.11-27.46-69.9-6.66z"/><path d="M330.71 263.89s-4.16 10.71 4.16 17.37 24.4-2.68 23.85-13c-20.23-5.64-10.55-6.76-28.01-4.37z"/><path class="cls-7" d="M352.17 271.23c0 2.3-.2 5.82-2.49 5.82s-5.83-2.69-5.83-5a4.16 4.16 0 014.15-4.15c2.31 0 4.17 1.03 4.17 3.33zM345.06 277.11c0 .66-.05 1.66-.72 1.66s-1.7-.77-1.7-1.42a1.2 1.2 0 011.21-1.18c.67 0 1.21.29 1.21.94z"/><path d="M469.68 287.91s36.62-23.3 80.72 3.33c-14.15-17.47-64.07-19.97-80.72-3.33z"/><path class="cls-8" d="M418.09 375.29a25.25 25.25 0 0125 5.83c-11.65-4.17-12.48-1.79-12.48-1.79s-9.19.95-12.52-4.04z"/><path d="M353.18 362s3.37 13.51 13.33 12.16 13.3 1.36 13.3 1.36.83-11.86-15.81-9.36c-10.82-.86-10.82-4.16-10.82-4.16z" fill="#f4a067"/><path class="cls-8" d="M363.17 369.47s10-5.83 16.64 2.49c-5.82-5-8.32 1-8.32 1s-4.99 3.16-8.32-3.49zM327 333s42.85 6.5 65.57-29.49C379 327.86 357.34 343.67 354 356.15c.84-9.15 15.81-28.29 15.81-28.29S352.34 338.16 327 333z"/><path d="M338.2 426.05a108.38 108.38 0 0011.11-.28c7.84-.56 15.48-1.36 22.31-5.64a33 33 0 015.17-3.06c2.85-1.13 6.37-.24 9.2.66a28.18 28.18 0 014.92 2.18c1.24.68 3.49 2.76 4.88 2.82.95 0 2.57-.94 3.47-1.23a63.28 63.28 0 0115.68-3.16 25.65 25.65 0 0112.4 2.14c3.08 1.47 5.69 3.71 8.49 5.64a49.28 49.28 0 009.13 4.49 181.48 181.48 0 0019.53 6.86c2.27.67 4.56 1.32 6.86 1.9-.32-.08-1.49.68-1.79.81-1.76.74-3.56 1.38-5.37 2a108.48 108.48 0 01-21.1 4.35 155.37 155.37 0 01-34.22-.14A214.53 214.53 0 01363.24 436q-6.6-2.24-13.08-4.81c-2.15-.86-4.3-1.75-6.43-2.66l-2.6-1.13c-.75-.4-2.13-1.35-2.93-1.35z" fill="#bc4052"/><path d="M338.2 426.05s47.44.83 62.41 10c28.3-5 69.9 3.33 69.9 3.33s-78.22 66.56-132.31-13.33z" fill="#bb323f"/><path d="M297.84 226c6.66-33.29 11-61 24.05-92a21.09 21.09 0 012.07-3.26 143.38 143.38 0 0133-36 24.94 24.94 0 014.69-3 24.5 24.5 0 015.54-1.55c28.06-5.36 56.33-1.21 83.93 4.75 15.73 3.4 29.56 11.51 46.06 10.91 9.25-.34 19-3.18 28.56-2.31 10.51 1 18.3 7.22 25.32 14.64 6.19 6.55 12.74 12.75 19.06 19.22 7.81 8 15.62 16.05 24.16 23.27 6.49 5.49 13.86 11.24 22.26 13.37a18.54 18.54 0 0010.44-.12c-39.94-12.48-41.61-45.77-41.61-45.77s43.27 51.6 32.46 81.55c-15-10-13.32-28.25-13.32-28.29-.29 3.25-1.65 6.35-1.76 9.72-.21 6.46 1.81 12.63 7.12 16.61-8.3-2.12-18.83-12.93-17.84-22.17 0 0-2.5 23.3 28.29 49.1 1.17 1 1.33 6 1.51 7.48a54.61 54.61 0 01.41 7.67 94 94 0 01-1.59 14.78c-2.64 15.36-5.53 30.63-.33 45.79C630.29 339.51 617 377 617 377s30-134.8 21.64-159.77c5.82 13.32 5 24.13 5 24.13 7.27-16.24 13.13-34 15.42-51.63.89-6.84 1.35-14-.42-20.72-.94-3.6-3.3-6.23-4.54-9.53-.92-2.46.67-6.79.87-9.61.55-8.13-.83-17.2-7.06-23a14.91 14.91 0 00-5.93-3.65s13.31-9.15 13.31 6.66c4.16-16.65-42.44-69.9-79-78.23-14.3-18.76-36.83-31-58.63-38.84A164.19 164.19 0 00483.8 4a91.58 91.58 0 00-17.8-.72 66.93 66.93 0 00-8.46 1c-2.76.52-5.7 1.86-8.43 2.07.24-4.58 13.29-4.65 16.27-4.81a142.22 142.22 0 0114.89 0S408.1-8.33 394 21.63C394 10.81 413.4 0 413.4 0S384 15 387.3 27.45c-7.49-14.14-35.78-5.82-35.78-5.82s25.79-5 34.12 10c-20.81-4.18-66.58 16.63-60.75 47.37 2-14.26 12.08-33.06 29.45-30.93 2.21.27 2.14.32 1.05 2.93-4.9 11.69-12.88 20-22.18 28.84-7.2 6.81-15.8 12-23.25 18.39-8.56 7.39-14.07 17.34-17.72 28s-6 23-3.33 34.1c.43 1.8 1.46 3.51 1.86 5.27-7.49-33.28 18.3-49.1 18.31-49.1-.93.57-1.8 3-2.31 4-2.06 3.61-4 7.3-5.81 11-5.41 11.13-10.46 22.73-10.26 35.32.1 6.27 1 12.5 1.41 18.75.94 13.51 6.89 26.9 5.73 40.43z"/></g></g></g></svg>