<svg viewBox="0 0 920.85 802.51" xmlns="http://www.w3.org/2000/svg"><path d="m377.5 446 11.79 95.45 32.14 55.14 31 47 43.07-17.82s41.73-45.86 41.61-48.56 26.95-44.21 26.95-44.21l11.94-43.34z" fill="#ffba97"/><path d="m918 801.51h-918s12.55-171 64-244c19.45-30 64-53 64-53s4-10 21-12c17-12 34-26 47-20 7.81 3.6 32-12 32-12s18-13 32-9c11-7 49-9 49-9s40-3 60 6 16.43 40.72 26.21 60.86c11.58 24.28 3.79 39.14 3.79 39.14s15.58 5.66 30 35c7 15.63 17.4 23.46 26.38 36a81.39 81.39 0 0 1 6.62 11s23-56.38 47-57.19c0-15.29 24.51-39.37 38.86-52.15 5.94-5.3 10.14-8.66 10.14-8.66l63-58s46-10.19 61 19.4c10 .2 9 9.6 9 9.6s7 0 10 6c9-1 19 4 19 4s7-6 14-1 9 2 24 12c12 2 13 7 13 7s34 12 47 26c11.94 4.78 31.46 19.35 39 29 17.81 22.81 25.73 40.57 36 69 15.35 42.49 35.34 166 25 166z"/><path d="m562 529.51s-41.58 19.79-46.42 48.21c-40.42 8.22-53.58 66.79-54.07 71l-11.51-22.95 5.38-6.21a81.39 81.39 0 0 1 6.62 11s23-56.38 47-57.19c0-15.29 24.51-39.37 38.86-52.15z" fill="#ccc"/><path d="m470.53 689-7.53 113.51s-1.5-.21-7.09-.44c-5.15-.22-13.76-.44-27.87-.53q-4.4 0-9.52 0h-2.52c3-12 8-93 16.58-124.72s4.42-48.31 4.42-48.31-20-15-26-26c-8 0-16-9-16-9v-16c-27-23-27-51-27-51s-3.72-1.51-8.28 17.49c-21.28 6.51-55.72-9.51-55.72-9.51s-5.67-30.49 23.67-63.49c10.63-19.85 15.21-31.51 17.2-37.09.57-1.59.92-2.69 1.15-3.34l33 46.94s31 39 20 71c19 6 35 47 51 61.89s20.51 78.6 20.51 78.6z" fill="#999"/><path d="m537.12 523.59s28.88 12.92 21.88 45.92-2 35 20 41c-6-25 11-55 11-55s0-27 10-34 15.13-66 15.13-66z" fill="#999"/><circle cx="450" cy="710.51" fill="#ccc" r="14"/><circle cx="450" cy="708.51" r="14"/><path d="m440 627.51s-1 42.32-8 59.66c-3.49 18.73-11.41 94.14-13.5 114.34h-2.5c3-12 8-93 16.58-124.72s4.42-48.28 4.42-48.28-20-15-26-26c-8 0-16-9-16-9v-16c-27-23-27-51-27-51s-3.72-1.51-8.28 17.49c-21.28 6.51-55.72-9.51-55.72-9.51s-5.67-30.49 23.67-63.49c10.63-19.85 15.21-31.51 17.2-37.09l1.13 11.38s-13 15.22-16 31.22c-14 15-21.94 28-23.47 56.5 22.94 8 39.47 10.5 50.47 8.5 5-18 12.51-20.34 12.51-20.34s6.49 41.34 29.49 55.34v17.72a15.51 15.51 0 0 0 12 5.28c4 9 29 28 29 28z" fill="#ccc"/><path d="m443.07 701.66s3.08-3.73 6.16-2.64a44.56 44.56 0 0 1 .77 5.72l-2.31.77z" fill="#808080"/><path d="m455.43 700.52s4.35 2.7 3.63 6.09a46.52 46.52 0 0 1 -5.89 1.61l-1.17-2.32z" fill="#999"/><path d="m442.24 714.81s-3.3-3.78-1.65-6.74a44.71 44.71 0 0 1 6 .18l.4 2.49z" fill="#808080"/><path d="m457.69 714.38s-3.39 4.12-6.78 2.91a49 49 0 0 1 -.85-6.3l2.54-.85z" fill="#999"/><path d="m441.21 713.34 5.65-3.2.1.6-4.72 4.07a3.28 3.28 0 0 1 -1.03-1.47z" fill="#808080"/><path d="m343 221.51s-6-13-13-9-3 13-3 13a22.79 22.79 0 0 1 -1.14 13.32c-2.86 6.68 2.14 16.68 2.14 16.68l-11 56s-9 1-2 12 22-30 22-30z" fill="#ef9973"/><path d="m666.61 251.74s.89 119.26-25.11 183.26-106 98-136 110c-17.56 7-40.6 3.43-56.69-.77a163.08 163.08 0 0 1 -19.31-6.23 240.59 240.59 0 0 1 -25.3-19.64c-6.45-5.62-13.73-12.42-21.33-20.36-.34-.36-.68-.71-1-1.08-17.92-18.87-37.51-44-52.35-74.92-29.63-61.73-5.4-149.17 4.11-178.18.94-2.89 1.74-5.2 2.33-6.84.68-1.91 1.07-2.93 1.07-2.93l6.4-32.36 17.93-71.41 44.14-63.28 8.07-2.08 48.55-12.52 57.88-14.93 23.66 11.09 62.84 29.44 63 93z" fill="#ffba97"/><path d="m666.61 251.74s.89 119.26-25.11 183.26-106 98-136 110c-17.56 7-40.6 3.43-56.69-.77-5.62-3.23-20.81-6.44-22.81-11.72 225 15 230-291 234-311s-10.42-30.34-10.42-30.34 9.42-30.66-1.94-33.17-32.64-33.49-32.64-33.49-38-1-38-21-26-21.11-26-21.11-48 14.11-67.12 1c-15.11 7.92-41.88-.91-41.88-.91s-15 21-27.44 16.23-9.56-23.47-9.56-23.47l8.53-10.32 9.47-11.42 39.12-1.11 22.34-.63 59.2-3.21 62.84 29.44 63 93z" fill="#f4a07a"/><path d="m482.5 340s-13-21-31-12c7 2 5.38.91 10.69 5.95s11.31-5.95 20.31 6.05z" fill="#360303"/><path d="m542.22 262.43.06.15c3.73 9.65 11.09 17.42 19.3 23.5 8.55 6.33 17.95 9.37 28.42 10.53 17 1.9 23 6.9 23 6.9s.77-7.93-9.62-8.47c10.24-5.04 27.62 3.47 27.62 3.47s1.89-17-12.55-15.5c8.1-6 22.72-7.77 22.72-7.77s-45.17-51.73-99.17-26.73c-4.09 1.89-1 10.84.22 13.92z" fill="#f4a37a"/><path d="m467.72 249.41s-44.72 35.1-76.72 26.1a31 31 0 0 0 20-9s-17 10-37-1c13 1 21-4 21-4s-20.83.52-27-11.14c-18-33.86 26-66.86 102-16.86 1.55 6.36-2.28 15.9-2.28 15.9z" fill="#f4a37a"/><path d="m506.5 338s11.11-13.72 26.56 7.14c-11.12-7.27-11.56-2.14-26.56-7.14z" fill="#360303"/><path d="m445.5 310a16.34 16.34 0 0 0 -3.33 3.21 25 25 0 0 0 -5.13 7.86 10.75 10.75 0 0 0 .43 9.28 14.16 14.16 0 0 0 5.75 5.34c2.38 1.25 4.94 1.66 7.42 2.55 2.7 1 7.29 2.62 7.3 6.19 0 .45-.51 1.37-.44 1.71-.66-3.06-3.56-4.63-6.36-5.36-4-1.05-7.59-1.92-10.89-4.54a16.23 16.23 0 0 1 -5.94-9c-1.71-7.82 5.18-13.73 11.19-17.24z" fill="#360303"/><path d="m528 350.51s26.55 1.91 22.28-16.55c5.44 11.09-5.28 20.55-22.28 16.55z" fill="#360303"/><path d="m418 390.51c-1.93-.51 34.5-1.47 48-6s22 6 22 6 23-17 63 17c-34-6-3 17-133-17z" fill="#ea3457" opacity=".84"/><path d="m416.07 390s52.93 6.51 68.93 14.51c22-5 66.7 2.83 66.7 2.83s-65.57 73.16-135.63-17.34z" fill="#d81330" opacity=".94"/><path d="m484.46 411.66s-1.46 13.53-2 16.19 3.5 3.66 5.5 1.66c4 1 6 2 8-1 4 2 22 3 27-4s2.51-12.85 2.51-12.85-9.21-3.85-11.36 0c-5.3-2.3-13 0-13 0s-6.13-4.15-9.13-1.15c-2.98-2-7.52 1.15-7.52 1.15z" fill="#e22452" opacity=".66"/><path d="m377.5 234s45-40 80 13c-28-1-36 19-80-13z" fill="#fff"/><path d="m627.5 268c-19.43 1.69-26.73 18.37-56.28 4.8q-1.54-.71-3.18-1.53a141.18 141.18 0 0 1 -13.88-8.16l-1.66-1.11s38-32 75 6z" fill="#fff"/><path d="m408.5 226s-10 13 4 22 27-10 21-19-25-3-25-3z" fill="#360303"/><path d="m571.22 272.81q-1.54-.71-3.18-1.53a141.18 141.18 0 0 1 -13.88-8.16s22.11-14.63 23-4.12c-.03 0-12.77 3.28-5.94 13.81z" fill="#f4c1a8" opacity=".21"/><path d="m594.83 259.61c-7.17-4.91-26.83-1.1-30.26 2.34s3.13 9 3.46 9.32a141.18 141.18 0 0 1 -13.88-8.16c13.94-15.6 42.01-10.65 40.68-3.5z" fill="#f4b595" opacity=".38"/><path d="m421.28 226c8.58-1.36 24.71 10.51 26.34 15.08s-6.71 6.83-7.12 6.94a142.27 142.27 0 0 0 16-1.42c-5.88-20.07-33.36-27.6-35.22-20.6z" fill="#f4b595" opacity=".38"/><path d="m555.13 263.75s38.63-21.61 64.5 5.83c5.37-2.07 7.87-1.57 7.87-1.57s-31-37-75-6a2.65 2.65 0 0 0 2.63 1.74" fill="#360303"/><path d="m381 236.5s38.5-24.5 76.5 10.5c-17-29-52-38-80-13a10.12 10.12 0 0 0 3.5 2.49" fill="#360303"/><path d="m537.49 214.26s23.92-18.11 48-10.23c-3-7-12-4.94-12-4.94s32-5.15 46 8.78c0-5-6-8-6-8s20.12 4.33 34.21 33c-25.15-8.3-41.61-12.93-62.34-8.87 5.45-8.11 12.48-4.68 12.48-4.68s-31.28-3.28-44.23 6.79c1-6 8.22-10.37 8.22-10.37s-16.26 2.4-19.22 11.42c-4-8 9.15-13.16 9.15-13.16s-12.2 2.17-15.16 9.19c-6.08-3.89.89-8.93.89-8.93z" fill="#360303"/><path d="m364 192.51s19-26 39-18c-8 0-10 4-10 4s17-3 32 0a21.53 21.53 0 0 0 -12.26 4.23s18.26-7.23 31.26-1.23a20.69 20.69 0 0 0 -8 2s19 0 26 10c-1-5-6-6-6-6s10 0 12 7c1-4-2-8-2-8s8 6 7 15c0-9 9-15 9-15s-6.66 8-4.83 15c1.66-7 10.83-8 10.83-8s-15.26 13-9.13 23.5c-9.74-9-23.87-15.5-23.87-15.5s5 3 5 6c-2-4-21-9-21-9a11.25 11.25 0 0 0 5 4c-4 1-29-11-37-11a4.45 4.45 0 0 1 2 5s-16-5-22-4c5 3 8.72 2.48 8.72 2.48s-37.72 11.52-31.72-2.48z" fill="#360303"/><path d="m433.69 397.51s15.43 0 18.51 4.11c6.17-1 13.37 3.09 13.37 3.09s16.12.22 15.77 4.22 1.16 20.57-5.25 21.54-37.26-16.47-41.37-24.74-1.03-8.22-1.03-8.22z" fill="#e22452" opacity=".66"/><path d="m410 227.82s-8.67 11.27 3.47 19.07 23.41-8.67 18.21-16.47-21.68-2.6-21.68-2.6z" fill="#470c0c"/><path d="m408.13 237.53s2.87 11 12.87 10 11-11 11-11-5-6-11-1-4.77.39-4.77.39-4.97-6.37-8.1 1.61z" fill="#bf512b"/><path d="m408.13 235.47s3.87-7.17 11.37.43c7-4.79 12.5-1.39 12.5-1.39s-13.74-15.09-23.87.96z" fill="#360303"/><circle cx="419.5" cy="237.01" r="4.5"/><circle cx="426.5" cy="236.01" fill="#fff" r="1.5"/><path d="m409 237.51s2-4 5-2c0 3 4 11 11 3 4 1 4 4 4 4s-12 11-20-5z" fill="#e8704f"/><path d="m413.05 243.24s6.95-.84 10.95 2.21c-4 2.06-8 1.06-10.95-2.21z" fill="#f28d7c"/><g fill="#bf512b"><path d="m414 236a4.07 4.07 0 0 0 -3.6 1c.72-.5 3.66-.65 3.66-.65z"/><path d="m414.78 237.3a3.24 3.24 0 0 0 -2.79 1.06 9.7 9.7 0 0 1 2.85-.78z"/><path d="m410 238.51s-.66-1.16 2-1c-2.42.38-2 1-2 1z"/><path d="m414.5 238.09a4 4 0 0 0 -1.55 2.58 12.36 12.36 0 0 1 1.75-2.45z"/><path d="m415 242s-1.32.13-.09-2.2c-.7 2.32.09 2.2.09 2.2z"/><path d="m424.34 238.38a4 4 0 0 0 1 2.85 12 12 0 0 1 -.72-2.92l-.23.07"/><path d="m423.49 239.43a4 4 0 0 0 .94 2.85 12.56 12.56 0 0 1 -.72-2.92z"/><path d="m423.77 243.8s-1.27.4-.55-2.13c-.14 2.44.55 2.13.55 2.13z"/><path d="m420.49 241.43a4 4 0 0 0 .94 2.85 12.56 12.56 0 0 1 -.72-2.92z"/></g><path d="m577.5 253s-10 13 4 22 27-10 21-19-25-3-25-3z" fill="#360303"/><path d="m579 254.82s-8.67 11.27 3.47 19.07 23.41-8.67 18.21-16.47-21.68-2.6-21.68-2.6z" fill="#470c0c"/><path d="m577.13 264.53s2.87 11 12.87 10 11-11 11-11-5-6-11-1-4.77.39-4.77.39-4.97-6.37-8.1 1.61z" fill="#bf512b"/><path d="m577.13 262.47s3.87-7.17 11.37.43c7-4.79 12.5-1.39 12.5-1.39s-13.74-15.09-23.87.96z" fill="#360303"/><circle cx="588.5" cy="264.01" r="4.5"/><circle cx="595.5" cy="263.01" fill="#fff" r="1.5"/><path d="m578 264.51s2-4 5-2c0 3 4 11 11 3 4 1 4 4 4 4s-12 11-20-5z" fill="#e8704f"/><path d="m582.05 270.24s7-.84 11 2.21c-4.05 2.06-8.05 1.06-11-2.21z" fill="#f28d7c"/><path d="m583 263a4.07 4.07 0 0 0 -3.6 1c.72-.5 3.66-.65 3.66-.65z" fill="#bf512b"/><path d="m583.78 264.3a3.24 3.24 0 0 0 -2.79 1.06 9.7 9.7 0 0 1 2.85-.78z" fill="#bf512b"/><path d="m579 265.51s-.66-1.16 2-1c-2.42.38-2 1-2 1z" fill="#bf512b"/><path d="m583.5 265.09a4 4 0 0 0 -1.55 2.58 12.36 12.36 0 0 1 1.75-2.45z" fill="#bf512b"/><path d="m584 269s-1.32.13-.09-2.2c-.7 2.32.09 2.2.09 2.2z" fill="#bf512b"/><path d="m593.34 265.38a4 4 0 0 0 .95 2.85 12 12 0 0 1 -.72-2.92z" fill="#bf512b"/><path d="m592.49 266.43a4 4 0 0 0 .94 2.85 12.56 12.56 0 0 1 -.72-2.92z" fill="#bf512b"/><path d="m592.77 270.8s-1.27.4-.55-2.13c-.14 2.44.55 2.13.55 2.13z" fill="#bf512b"/><path d="m589.49 268.43a4 4 0 0 0 .94 2.85 12.56 12.56 0 0 1 -.72-2.92z" fill="#bf512b"/><path d="m444 402.51s6-1.51 7.5 2.74c-3 2.51-.5 6.26-.5 6.26s1-7 6-6 5.45 3.91 5.45 3.91-5.68 7.06-3.07 10.57c-6.76-.99-23.38-10.48-15.38-17.48z" fill="#ef376c"/><path d="m464.74 409.42s-4.74 7.09-2.74 12.09c9 5 15 5 15 5s5-12.78 1-15.39-7-.61-7-.61-3.94 5-.47 8c-3.06 0-1.57-9.11-1.57-9.11s-3.47-2.07-4.22.02z" fill="#ef376c"/><path d="m485.94 414s1 10.82-1.48 13.16c4.08 1.68 6.24 0 6.24 0s4.3 1.34 6.3-.66c2-3 .94-13.88.94-13.88s-4.26-2.76-6.6-.44c-2.68-1.35-5.4 1.82-5.4 1.82z" fill="#ef376c"/><path d="m501 413.51s1 11.64-2.49 13.32c5 1.36 8.49-2.32 8.49-5.32 2 2-1.32 6.41-1.32 6.41s7.32 2.59 9.32-2.41-1.83-12.88-1.83-12.88-3.17-2.12-5.17-.12c3 3 3 8 3 8s-2-8-5-8a12.13 12.13 0 0 0 -5 1z" fill="#ef376c"/><path d="m445.09 390s11.91 1 21.91-1.73 20 6.24 20 6.24 23-14 49 5c-22-2-24.59-5-38 0-8 3-19 0-24-3s-28.91-6.51-28.91-6.51z" fill="#f2577c" opacity=".84"/><path d="m498.51 354.06s-3.51 22.45 2.49 27.45c-11 5-25-4-25-4s17.44 5.9 22.22 2.95c-7.44-6.9.29-26.4.29-26.4z" fill="#350505" opacity=".51"/><path d="m453 437.51s31-4.21 58.5 4.89c-7.5 4.11-3.5 9.11-3.5 9.11s-7-5-5-9c-6 2 .68 9 .68 9s-7.68-5-6.68-9c-6 1-1 8-1 8s-8-1.68-7.5-7.34c-3 3.68 5.5 12.34 5.5 12.34s-14.5-6.43-11.75-12.21c-4.5-.58 2.21 10.59 2.21 10.59s-8.46-6.38-7.46-12.38c-2 6-9 12-9 12a16.43 16.43 0 0 0 4-13c-8 0-6 7-6 7s-5-4-3-8c-4 2-3 11-3 11s-10-6-7-13z" fill="#360303"/><path d="m465.87 390.31s4.94-2.62 8.13-.44c-1.17 2.18-.33 5.66-.33 5.66s-5.19-2.61-8.67-2.61a3.81 3.81 0 0 1 .87-2.61z" fill="#f4769a" opacity=".84"/><path d="m477 390.51a19.56 19.56 0 0 1 9 5c-1.34 2.5 0 4 0 4a25.69 25.69 0 0 1 -10.44-2.74 9.71 9.71 0 0 1 1.44-6.26z" fill="#f4769a" opacity=".84"/><path d="m436.23 249.88c1.13.05 2.31.08 3.53.1a140.75 140.75 0 0 0 16.08-.88s-12.92-23.1-18.52-14.22c0 0 9.81 8.77-1.09 15z" fill="#f4c1a8" opacity=".21"/><path d="m389.5 59c-.44.53-.07 2.74-.06 3.43.11 11.23 2.9 30.57 18.06 29.57 20.09-1.35 32-17 32-17s28.92 7.5 50-8c21.08 26.5 60 6 60 6s25 2 33 25 36 21 36 21 13 32 35 33c17 21 6 36 6 36a63.47 63.47 0 0 1 6.59 33.29c-1.59 18.71.41 39.71.41 39.71s25.72-79.43 7.86-101.21c15.28-33.57-11.86-81.79-28.86-81.79 0 0-11-44-37-41-10-17-41-17-41-17s3.5-10.2-16.74-9.6c-6.52-18.79-60.26-9.4-92.26 6.6-27.93-7-68.81 41.78-69 42z" fill="#360303"/><path d="m384.87 61s-1.19 23.23 13.63 32c-19.36 9.55-31 52-31 52s-25 39-27 72c-16-20 9-97 20-108-2-24 24.37-48 24.37-48z" fill="#360303"/><path d="m521.78 242c-28.56 1.06-31-6.08-31-6.08s-66.9-39.45-148.35-32.42l-7.14 22.67s7.7 2.36 8.7 17.36 1 41 16 50 45.4 23 78.7 16.5 50.56-46.26 50.56-46.26 17.83-14.11 25.78 5.83c-3.08 18.86 15.73 48.07 28.34 58.5s58.63 21.8 77.12 14.6 27.51-18.19 32.51-36.19 17-17 17-17l4-23s-81.44-38.07-152.22-24.51zm-81.78 61.51c-30 7-62.72 1-80.36-17s-5.84-64 7.26-69.5c0 0 57.06-17.1 105.08 20.2 17.02 20.6-1.98 59.3-31.98 66.3zm180 34c-18 6-44 2.14-69-9.43s-27.51-46.44-26.26-58.5c0 0 3.39-22.07 31.32-22.57s68.45-.37 89.2 22.57c13.48 19.86-7.26 61.93-25.26 67.93z"/><path d="m669.5 263.75s10.5-1.72 0-11.48a2.85 2.85 0 0 0 -.5-2.76s15 5 9 21-8 19-8 19z" fill="#e2591b"/><path d="m495 360.51s-2 11.49 2.51 18.74c-8 3.51-20.51-1.74-20.51-1.74l5-20s6 5 13 3z" fill="#ffba97"/><path d="m393.26 61s-4.26 23.51 13.74 27.51c-7-6-7.09-18.36-7.09-18.36s2.09 14.36 13.09 14.36 23-13 23-13-5-43 19-48c-11-2-22 1-27 18-7-5 5-16 5-16s-23.62 10.49-18.81 30.23c-9.38-2.46-3.19-13.23-3.19-13.23s-15 8-4 20c-5 6-7-10-7-10s-6 8 0 12c-4 2-6.74-3.51-6.74-3.51z" fill="#51201d"/><path d="m535 5.81s-101-4.3-92 64.7c4-19 9-20 9-20s-9 13-1 22c3-8 7-15.54 14-16.77s1.64 12.77-8.68 16.77c11.36 6 27.09-5.15 32.39-12.58s5.14-19.93 5.14-19.93a18.9 18.9 0 0 1 -9.85 13.51c-3-10 9-21 23-21-13-9-29 1-29 1s13-22.41 57-27.7z" fill="#51201d"/><path d="m508 35.51s-21 14-4 36c-2-17 5-26 5-26s13 17.42 0 28.71c18-2.42 15-29.71 15-29.71s14 25-1 32c21-1 26-7 30-13s-10-34 9-42c-4-6-15 1.46-15 1.46s5.17-9.13 17.1-3.8c-1.12-6.33-14.59-10.68-27.83-1.67-8.46-4 9.77-9 9.77-9s-30.04-1.99-38.04 27.01z" fill="#51201d"/><path d="m485 28.51s22-19 40-19c-9 2-15 5-21 11 5-4 13-8 25-10-21 7-21 20-21 20s-8-7-23-2z" fill="#51201d"/><path d="m382 67.51s1 21 10 25c-14 6-18 21-23 36-7-7 4-35 4-35s-6 6-8 17c-4-8 9-39 17-43z" fill="#51201d"/><path d="m362 112.51s-2 18 3 27c-14 6-27 61-26 70-8-14 13-93 23-97z" fill="#51201d"/><path d="m333 202.64s11 1.87 17 1.87c-5 8-11 24.33-11 24.33s-14-9.07-6-26.2z" fill="#e2591b"/><path d="m555.91 67.51a19.71 19.71 0 0 0 2.3-19c-4.21-11.05 1.79-26 19.79-23-11 5-14.79 6-12.89 17 2.78-9 20.63-22.06 36.76-5-18.74-11.92-23.87 3-20.87 15s9.87 25-.06 36c8.12-19-11.94-35-11.94-35s16 13 7 30c-5-14-20.09-16-20.09-16z" fill="#51201d"/><path d="m603 41.51s-15-6-11 22-9 31-9 31 7.15 8 17.57 0 2.43-20.29 2.43-20.29 19 17.29-12 30.29c5 15 29 10 29 10s19.21-21.74 18.11-36.37-15.11-30.63-15.11-30.63 14 12 6 33c3-20-13-38-26-39z" fill="#51201d"/><path d="m624 119.51s24-19 23-35c14 4 33 46 26 67 2-29-17-33.5-17-33.5s17 11.86 13.52 26.18c-2-25.36-27.5-19.68-27.5-19.68s4 20 20 21c-11.02 9-38.02-26-38.02-26z" fill="#51201d"/><path d="m662 158.51s6.15-5 10.57 0 7.43 57.62-3.07 79.31c8-21.62-7.5-79.31-7.5-79.31z" fill="#51201d"/></svg>